<?xml version="1.0"?>
<svg xmlns:rdf="http://www.w3.org/1999/02/22-rdf-syntax-ns#" xmlns="http://www.w3.org/2000/svg" xmlns:cc="http://creativecommons.org/ns#" xmlns:dc="http://purl.org/dc/elements/1.1/" xmlns:svg="http://www.w3.org/2000/svg" id="svg2" viewBox="0 0 300 300" version="1.1">
  <g id="layer1" transform="translate(0 -752.36)">
    <text id="text3042" font-size="20px" xml:space="preserve" transform="translate(0 62.362)" y="733.42126" x="1016.2135" font-family="Plantagenet Cherokee" fill="#000000">
      <tspan id="tspan3044" y="733.42126" x="1016.2135"/>
    </text>
    <g id="g5042" transform="matrix(.92193 0 0 .92193 39.407 45.118)">
      <g id="g5558" transform="matrix(.94393 0 0 .94393 14.85 31.044)">
        <path id="path3885" d="m119.51 788.58c-45.594 0.91-79.063 59.38-92.47 103.37-22.258 73.02 34.142 226.45 34.142 226.45 42.636-18.523 74.565-17.943 117.72-3.4484 0 0 49.838-152.41 28.413-224.86-12.553-42.447-41.382-100.61-85.637-101.51-0.72976-0.014-1.443-0.016-2.1667-0.002zm1.4253 27.372s-41.283 57.275-51.46 90.431c-11.705 38.132-9.3647 119.31-9.3647 119.31s-22.102-107.44-1.197-154.52c11.232-25.295 62.021-55.216 62.021-55.216z"/>
        <path id="path4260" d="m642.43 427.97c-19.62 0.0636-39.24 1.2729-39.24 3.4361 0 0 8.2012 13.734 9.8735 21.126 0.697 3.0808 0.79435 6.3225 0 9.3885-2.0165 7.7833-9.7781 14.135-11.85 21.909-2.9934 11.229-3.648 23.229-0.49149 34.43 1.2352 4.3833 7.4051 12.127 7.4051 12.127 0.00004 5.0388 68.607 4.34 68.607-0.00002 0 0 6.17-7.7439 7.4052-12.127 3.1564-11.201 2.5019-23.201-0.49149-34.43-2.0723-7.7741-9.8393-14.126-11.856-21.909-0.79436-3.066-0.697-6.3077 0.00002-9.3886 1.6723-7.392 9.8789-21.126 9.8789-21.126-0.00004-2.4173-19.62-3.4997-39.24-3.4362zm-29.858 8.5198s13.738 2.5111 20.741 2.7388c11.883 0.38618 27.093-1.5069 35.557-2.345 0 0-20.76 5.8083-31.608 6.6498-5.0892 0.39475-15.307-0.78309-15.307-0.78309s12.041 18.664 10.867 28.564c-1.2664 10.686-15.083 18.232-18.769 28.559-3.1439 8.8068-2.4684 27.387-2.4684 27.387s-8.6179-19.94-7.4051-30.126c0.66596-5.5935 5.3032-10.421 7.902-15.649 3.1703-6.377 8.8264-12.331 9.3821-19.171 0.70775-8.7119-7.9021-25.431-7.9021-25.431l-0.98844-0.39373z"/>
        <g id="g4929" transform="matrix(-.85848 0 0 .85848 2127.2 125.14)">
          <path id="rect4935" d="m1687.9 627.92c1.2885-0.72504 2.691-1.297 4.1876-1.6979l14.082-3.7742 12.638-7.2968c5.368-3.0992 11.639-3.1176 16.8-0.60017l21.468-5.7502c9.5796-2.5668 19.361 3.0826 21.928 12.662l28.134 105c2.5667 9.58-3.0827 19.362-12.662 21.928l-32.526 8.7194-0.055 0.032-23.814 23.808c-7.0129 7.0129-18.309 7.0146-25.322 0.002l-76.86-76.866c-7.0128-7.013-7.0146-18.309 0-25.322l15.714-15.717c0.4004-5.7282 3.5516-11.15 8.9197-14.249l12.638-7.2967 10.309-10.308c1.2209-1.221 2.5798-2.2236 4.0152-3.0196 0.1367-0.0819 0.2678-0.1751 0.4072-0.25354zm25.642 2.822-3.2945 1.9021 59.302 59.301-31.553-54.651c-0.28-0.485-0.5835-0.95141-0.9003-1.3997-0.034-0.0486-0.067-0.0961-0.1017-0.14435-0.01-0.0135-0.016-0.0278-0.024-0.0415-0.092-0.12629-0.1928-0.24604-0.2871-0.36947-0.095-0.12461-0.1893-0.24803-0.2871-0.36947-0.1704-0.21132-0.3458-0.41828-0.5242-0.62022-0.025-0.0278-0.045-0.0612-0.07-0.0889-0.1391-0.15506-0.2845-0.30475-0.4282-0.45408-0.049-0.0509-0.096-0.10578-0.1456-0.15591-0.098-0.0996-0.1967-0.19296-0.2967-0.29014-0.1275-0.12382-0.2496-0.25153-0.3804-0.37102-0.091-0.0835-0.1936-0.15926-0.2865-0.2406-0.1101-0.0966-0.22-0.19457-0.3324-0.28797-0.1545-0.12898-0.3151-0.2494-0.4735-0.37263-0.074-0.0572-0.1503-0.10953-0.2247-0.16553-0.1241-0.0933-0.2418-0.19607-0.3681-0.28582-0.1404-0.10005-0.2827-0.19386-0.4255-0.28958-0.056-0.0373-0.1149-0.0678-0.1711-0.10428-0.2035-0.13304-0.4099-0.27555-0.6183-0.39973-0.033-0.0195-0.07-0.0317-0.1033-0.0511-0.1711-0.10041-0.3447-0.19669-0.5188-0.2911-0.1875-0.10193-0.3715-0.20791-0.5624-0.30282-0.082-0.0411-0.1673-0.0742-0.2503-0.11388-0.1066-0.0509-0.2163-0.0966-0.3239-0.14525-0.1741-0.0792-0.3458-0.16019-0.5224-0.23362-0.1226-0.0511-0.2437-0.1088-0.3675-0.15696-0.1342-0.0525-0.2676-0.10576-0.4031-0.15485-0.1098-0.0399-0.225-0.0639-0.3356-0.10159-0.2174-0.0741-0.437-0.14561-0.6571-0.2112-0.022-0.006-0.038-0.0329-0.059-0.0395-0.2707-0.0795-0.5475-0.14182-0.8217-0.20847-4.3115-1.0482-9.0199-0.49553-13.184 1.9085zm-22.922 14.803c-0.2186 0.11733-0.4358 0.24866-0.6505 0.3756-1.2721 0.75337-2.4685 1.6818-3.5643 2.7776l-32.994 33.003c-7.0129 7.013-7.0192 18.295-0.01 25.308l56.43 56.437c7.013 7.013 18.309 7.0112 25.322-0.002l32.994-33.003c7.0129-7.0129 7.0191-18.295 0.01-25.308l-56.43-56.437c-5.7323-5.7322-14.33-6.7901-21.107-3.1515zm53.994-21.502 40.28 69.767-15.504-57.863c-2.5667-9.58-12.348-15.229-21.928-12.662l-2.8476 0.75823zm-72.084 45.697c15.178 12.319 38.237 20.446 50.493 14.793 5.3637-2.4738 12.125-0.0944 16.628 4.4086 6.6892 6.6891 6.6821 17.53-0.01 24.22-5.0329 5.0329-12.412 6.2717-18.61 3.7309 7.5604 5.1196 16.32 9.1732 24.543 11.245l-14.687 14.681c-2.0823-8.3224-6.1908-17.19-11.394-24.817 2.7049 6.2575 1.5082 13.801-3.6054 18.914-6.6892 6.6891-17.53 6.682-24.22-0.007-4.48-4.48-6.9074-11.205-4.4285-16.527 5.7138-12.272-2.3468-35.406-14.712-50.642z"/>
        </g>
        <path id="path2959" d="m706.38 569.66c-0.79712-2.3546-3.7586-6.2687-5.8112-6.1243l-8.1576 3.1996-0.33848-0.99986-0.14005 0.0474c-0.005-0.18813-0.0379-0.38114-0.10264-0.57232-0.30272-0.89421-1.1801-1.4087-1.9614-1.1442-0.78137 0.26453-1.1696 1.2075-0.86691 2.1017 0.2976 0.87908 1.1526 1.3827 1.9238 1.1483l-4.3899 1.7246-0.33191-0.98039-0.14783 0.0501c-0.002-0.19503-0.0343-0.39594-0.10146-0.59442-0.30273-0.89423-1.1827-1.4035-1.964-1.139-0.78135 0.26452-1.1671 1.2023-0.86432 2.0965 0.29759 0.87907 1.1488 1.384 1.9199 1.1496l-4.1021 1.6142-0.32795-0.96872-0.15561 0.0527c-0.00072-0.20046-0.0336-0.40682-0.10284-0.61129-0.30274-0.89425-1.1788-1.4048-1.9602-1.1403-0.78135 0.26452-1.171 1.2036-0.86822 2.0978 0.30273 0.89422 1.1827 1.4035 1.964 1.139l-4.6466 1.8246-0.38345 0.77592-0.89994 1.1459-0.43441 0.13862 3.1728 9.3721 0.42928-0.15378 1.411 0.36358 0.77594 0.38344 4.7994-1.3733c-0.78136 0.26451-1.171 1.2036-0.86822 2.0978 0.30273 0.89422 1.1827 1.4035 1.964 1.139 0.78135-0.26451 1.1671-1.2023 0.86435-2.0965-0.0693-0.20496-0.16801-0.38816-0.28961-0.54809l0.15561-0.0527-0.32795-0.96873 4.239-1.2096c-0.75487 0.28226-1.1244 1.2004-0.82675 2.0794 0.30273 0.89423 1.1788 1.4049 1.9602 1.1403 0.78136-0.26452 1.1709-1.2036 0.86821-2.0978-0.0674-0.19909-0.16326-0.37725-0.28049-0.53382l0.14782-0.0501-0.33189-0.98039 4.5348-1.2967c-0.755 0.28231-1.1282 1.2017-0.83063 2.0808 0.30272 0.89421 1.184 1.4074 1.9653 1.1429 0.78136-0.26452 1.1658-1.2062 0.86301-2.1004-0.0649-0.19194-0.15484-0.36429-0.26609-0.51698l0.14004-0.0474-0.3385-0.99985 8.4236-2.4137c1.7183-1.1322 1.6944-6.0364 0.89724-8.391zm-10.189-1.2902c0.1909 0.50245 0.0409 1.105-0.65464 1.3838l-1.8513 0.74382-0.74941-2.2137 1.5947-0.61789c0.78884-0.3057 1.4443 0.13454 1.6607 0.70402zm2.8449 8.4034c0.23681 0.59533 0.003 1.4189-0.85723 1.6692l-1.6421 0.47791-0.74942-2.2137 1.9224-0.53375c0.67372-0.18775 1.1422 0.13733 1.3264 0.60038zm-7.5498-7.9294 0.75469 2.2292-4.4183 1.7689-0.77179-2.2798 4.4354-1.7184zm2.804 8.2828 0.75336 2.2253-4.5671 1.3293-0.77049-2.2759 4.5842-1.2787zm-8.6915-5.9991 0.77707 2.2954-4.1318 1.6546-0.79288-2.3421 4.1476-1.6079zm2.6052 7.6953 0.77575 2.2915-4.2714 1.2422-0.79157-2.3382 4.2872-1.1955zm-8.2062-5.526 0.79945 2.3615-0.40446 0.16301c-1.8394 0.73709-2.9196-1.5463-1.0199-2.2825l0.62492-0.24197zm2.4168 7.139 0.79816 2.3576-0.64338 0.1874c-1.9563 0.56916-2.484-1.8969-0.57507-2.4288l0.42028-0.11631zm-10.389-4.3922-62.247 19.794c-6.6752-15.03-15.547-17.489-23.12-15.663-7.2064 1.7381-13.385 8.8047-17.456 9.9206-8.2225 2.2538-19.477-8.7288-37.984-1.6459-21.416 8.1962-18.924 28.255-13.256 44.998s15.874 34.19 37.864 27.691c19.004-5.6159 21.271-21.181 29.172-24.385 3.9119-1.5867 13.114 0.27767 19.894-2.7194 7.1259-3.1497 12.679-10.494 8.85-26.49l61.47-22.089-1.2994 0.45277-3.1939-9.4344 1.3072-0.42966zm-10.906 3.5489 3.2729 9.6678-1.433 0.49357-3.2782-9.6834 1.4381-0.47841zm-11.522 3.6492 3.4257 10.119-1.4356 0.49888-3.4336-10.142 1.4434-0.47576zm-10.579 3.3473 3.5679 10.539-1.4369 0.49489-3.5732-10.555 1.442-0.47975zm-9.0748 2.8727 3.6891 10.897-1.4369 0.4949-3.6944-10.913 1.442-0.47974zm-8.5106 2.6947 3.8024 11.232-1.433 0.49357-3.8077-11.247 1.4382-0.47842zm-7.6572 2.4231 3.9051 11.535-1.433 0.49358-3.9104-11.551 1.4381-0.47842zm-6.5989 2.0909 3.992 11.792-1.4356 0.49887-3.9999-11.815 1.4434-0.47577zm-6.0594 1.9169 4.0737 12.033-1.433 0.49359-4.079-12.049 1.4382-0.47843zm-5.3499 1.6941 4.1448 12.243-1.433 0.49357-4.1501-12.259 1.4382-0.47843zm-4.7002 1.4871 4.208 12.43-1.433 0.49357-4.2133-12.446 1.4381-0.47842zm1.4227 13.412c-0.96893 3.9376-3.8671 7.3107-7.9928 8.7074-6.4245 2.175-13.396-1.2699-15.57-7.6944-2.175-6.4245 1.2686-13.399 7.6931-15.574 4.1239-1.3961 8.4729-0.4751 11.635 2.0627l-3.0725 0.97944c-2.2991-1.2362-5.0847-1.5525-7.7521-0.64952-5.1049 1.7282-7.8426 7.2681-6.1144 12.373 1.7282 5.1048 7.2668 7.8387 12.372 6.1105 2.6677-0.90311 4.6877-2.8472 5.7633-5.2251l3.0395-1.0897zm-3.508-5.7766c0.0266 0.0787 0.0506 0.15582 0.0753 0.23469 0.0246 0.0788 0.0489 0.15704 0.0714 0.23603 0.0225 0.079 0.0434 0.15952 0.0634 0.2387 0.00061 0.002 0.001 0.003 0.002 0.004 0.039 0.15716 0.0734 0.31491 0.10352 0.4723 0.0152 0.0794 0.0284 0.15808 0.0413 0.23752 0.026 0.15872 0.0488 0.31773 0.0658 0.47639 0.0687 0.63454 0.0674 1.2658 0.001 1.886-0.0331 0.3101-0.0825 0.61866-0.14764 0.92159-0.0977 0.45438-0.23282 0.9003-0.39902 1.3319-0.0554 0.14388-0.11325 0.28738-0.17593 0.42816-0.12544 0.28147-0.26579 0.55568-0.41958 0.82285-0.002 0.00069 0.002 0.004 0.002 0.004-1.0424 1.8081-2.7209 3.2584-4.8534 3.9804-4.6534 1.5754-9.7028-0.9166-11.278-5.57-1.5754-4.6535 0.92049-9.7042 5.5739-11.28 2.1325-0.72193 4.3479-0.58641 6.2746 0.21743 0 0-0.0007 0.004 0.002 0.004 0.14223 0.0594 0.28408 0.11973 0.423 0.18637 0.13889 0.0666 0.27481 0.13864 0.41014 0.21239 0.54124 0.29477 1.0544 0.64669 1.5259 1.0488 0.1179 0.10051 0.2303 0.20193 0.34307 0.30883 0.1039 0.0985 0.20729 0.20004 0.30663 0.30383 0.0198 0.0208 0.0405 0.041 0.0601 0.062 0.0955 0.10165 0.18855 0.2065 0.2794 0.31304 0.29767 0.34901 0.56947 0.72252 0.81308 1.1211 0.01 0.0169 0.0203 0.0335 0.0301 0.0505 0.0781 0.12964 0.15341 0.26185 0.22533 0.39639 0.0379 0.071 0.0765 0.14546 0.11276 0.21765 0.0362 0.0723 0.0692 0.14283 0.10355 0.21647 0.0321 0.0701 0.0662 0.13886 0.0972 0.20996 0.0342 0.0791 0.0661 0.15932 0.0986 0.23978 0.0301 0.0764 0.0583 0.15326 0.0866 0.23088 0.0284 0.0776 0.0574 0.15726 0.0841 0.23605zm-43.581-4.1525 11.485 33.925c0.16677 0.49262-0.29517 1.0886-1.0341 1.3388l-3.8671 1.3092c-0.73897 0.25017-1.4679 0.0574-1.6347-0.43525l-11.48-33.9c-0.1668-0.4927 0.29386-1.0925 1.0328-1.3427l3.8671-1.3092c0.73896-0.25017 1.4692-0.0535 1.636 0.43919z"/>
        <path id="path4921" d="m493.97 758.76c0.0775-0.12019 7.423-2.7738 9.2882-3.3554 3.2759-1.0215 10.882-4.4722 12.956-5.8785 1.1471-0.77746 2.3806-1.5004 2.7411-1.6066 1.1276-0.33211 4.6493-3.8746 4.6664-4.6939 0.0367-1.7528-0.98013-2.5597-4.259-3.3796-1.7701-0.44264-3.3058-0.84291-3.4125-0.88946-0.10671-0.0466-0.11737-0.90604-0.0236-1.91 0.26037-2.7879-0.9326-7.714-2.4376-10.065-1.5169-2.3699-4.578-4.4091-7.744-5.1587l-2.2471-0.53203 1.1136-2.093c0.6125-1.1511 1.081-2.1941 1.0411-2.3178-0.20274-0.62745-1.2201-0.95798-4.7978-1.5585-7.0224-1.1787-11.354-3.7944-12.451-7.5188-0.52691-1.789-0.40039-3.9688 0.30475-5.2633 0.42671-0.78302 0.49279-1.528 0.23821-2.6864-0.0515-0.23447 0.27384-0.74475 0.72301-1.1339 0.44921-0.3892 1.0433-1.0775 1.3201-1.5295 0.813-1.3273 5.7018-6.8712 6.1847-7.0134 0.7181-0.2115 3.8269-4.3126 4.7239-6.2317 1.5093-3.2292 1.2702-4.0104-1.7865-5.838-2.9018-1.7349-5.5482-4.5978-6.2807-6.794-0.99541-2.9845-1.8158-6.6967-1.5005-6.7896 0.54913-0.16173 0.40464-1.4735-0.20759-1.8849-0.48628-0.32676-0.47112-0.58606 0.0743-1.2698 0.50088-0.62789 0.55736-1.1079 0.20974-1.7833-0.28039-0.5448-0.31111-1.2259-0.0749-1.6593 0.2347-0.43075 0.20532-1.1147-0.0711-1.6517-0.25945-0.50406-0.34949-1.3384-0.20022-1.8542 0.25504-0.88085-0.81726-7.1278-1.9899-11.593-0.38893-1.4812-0.71221-2.0435-1.244-2.1646-0.65053-0.14806-0.67566-0.2273-0.26581-0.83736 0.63254-0.94138 0.22532-1.9897-1.0134-2.609-0.828-0.41394-0.98967-0.66797-0.76201-1.1971 0.32569-0.757-0.33189-1.8232-1.3611-2.207-0.37704-0.14062-0.62242-0.48629-0.54526-0.76818 0.19562-0.71479-1.0191-1.8547-1.7478-1.6401-0.39045 0.11497-0.58364-0.0587-0.5488-0.49347 0.0712-0.88816-1.0843-2.033-1.5823-1.5676-0.21557 0.20148-0.027-0.14565 0.41867-0.77131 0.91971-1.2908 0.80586-2.1351-0.41968-3.1128-0.69497-0.5544-1.2144-0.56824-2.8828-0.0769-1.4546 0.42843-2.3775 0.46258-3.2356 0.11977-0.6603-0.2638-1.4813-0.39694-1.8244-0.29587-0.34315 0.10102-1.1297 0.0308-1.7478-0.15605-0.68355-0.20666-1.4621-0.14062-1.9869 0.16849-0.62292 0.36694-1.2707 0.32964-2.3289-0.13418-1.3189-0.57803-1.8089-0.54668-4.8834 0.31233-2.5279 0.7063-3.6114 1.1831-4.1625 1.8317-0.40977 0.48225-1.1931 1.0088-1.7408 1.1701-1.114 0.32811-2.7188 2.2472-3.1943 3.8199-0.17192 0.5687-0.9501 1.4244-1.7292 1.9015-1.9293 1.1814-16.149 8.7701-20.008 10.678-1.77 0.87492-3.4904 2.0122-3.972 2.6256-1.0979 1.3984-2.1739 5.0991-1.9991 6.8755 0.0751 0.76369 0.0397 1.9233-0.0788 2.577-0.35027 1.9326 0.62981 4.3138 1.6516 4.0128 0.26793-0.0789 0.78378 0.0558 1.1463 0.29949 0.54653 0.36722 0.55715 0.64513 0.0621 1.6251-0.90211 1.7859-0.0405 2.9631 1.9787 2.7035 0.85878-0.11046 2.6194 0.14531 3.9125 0.5682 1.431 0.46808 2.8101 0.6338 3.524 0.42354 1.0225-0.30117 1.2022-0.59109 1.401-2.2606 0.24411-2.0499 1.4022-3.8086 2.4525-3.7244 0.35381 0.0284 0.60113-0.0917 0.5496-0.26665-0.15818-0.53706 6.2297-1.1656 8.3206-0.81875 2.4208 0.4016 4.6212 1.559 5.3652 2.8221 0.50951 0.86493 0.18647 1.6228-3.6138 8.4768-5.072 9.1479-8.7507 17.232-9.1999 20.218-0.64857 4.3104 1.4932 8.7789 5.9358 12.384 3.0254 2.4551 7.6667 4.9744 9.4798 5.1457 0.93288 0.0881 2.5902 0.59022 3.6831 1.1158 6.5077 3.1298 6.788 9.264 0.73062 15.991-1.036 1.1504-1.612 1.9001-1.2799 1.666 0.74109-0.52257 0.95103-0.009 0.35755 0.87381-0.26909 0.40046-1.0409 0.74387-2.0069 0.89294-2.9555 0.45604-3.1235 2.6626-0.25788 3.3856 2.2268 0.56177 2.6487 2.0258 0.86613 3.0058-1.7428 0.9581-3.5619 4.337-3.6695 6.8162-0.10876 2.5047 1.0637 7.0674 1.9732 7.6787 0.33277 0.22365 0.94851 1.1491 1.3684 2.0565 0.41983 0.90747 1.0865 1.849 1.4815 2.0922 0.63775 0.3928 0.40892 0.737-2.0442 3.0747-1.5193 1.4478-2.6956 2.8592-2.6139 3.1365 0.0817 0.27726 0.31557 0.45489 0.5198 0.39474 0.20424-0.0602 0.34768 0.1858 0.31875 0.54658-0.0289 0.36077 0.34176 0.89701 0.82368 1.1917 0.81002 0.49529 6.8074 1.0867 8.9096 0.87862 0.50179-0.0496 1.446-0.0455 2.0982 0.009 1.4742 0.12367 2.8919 0.0193 5.1885-0.38183 0.98066-0.17131 2.0668-0.30266 2.4137-0.2919 0.34687 0.0107 1.8591-0.26533 3.3605-0.61352 1.5014-0.34818 4.2275-0.95851 6.058-1.3564 3.3568-0.72962 7.4111-1.7491 7.4992-1.8857l0.00015-0.00005z"/>
        <path id="path4753" d="m549.05 454.65c-0.15212 0.0561-0.21984 0.25421-0.33075 0.60785-0.14282 0.45519-1.6645 4.3561-3.3829 8.6634-4.9569 12.425-10.136 25.448-13.582 34.179-2.6765 6.7819-3.3192 8.2062-4.0563 8.935-1.0042 0.99287-1.9255 3.1227-12.507 28.942-7.0208 17.13-7.1171 17.318-9.938 19.371-1.4193 1.0333-2.4527 1.3784-4.7118 1.5659-2.791 0.23176-6.0535-0.50559-13.565-3.0561-11.15-3.7857-21.775-6.6338-35.142-9.4279-13.301-2.7805-27.313-3.995-31.926-2.768-6.146 1.635-11.012 5.7916-13.489 11.546-2.1751 5.0533-2.6806 7.8512-2.4999 13.648 0.34704 11.136 4.3022 20.438 11.641 27.389 2.9093 2.7552 7.031 4.92 10.827 5.6874 3.6399 0.7358 10.614 0.76337 16.558 0.0662 17.249-2.0232 46.554-10.153 56.895-15.776 5.4084-2.9409 11.171-8.7724 16.91-17.131 1.7598-2.5629 2.4708-3.9239 4.3758-8.2697 7.6272-17.399 12.256-29.012 14.879-37.345 1.276-4.0532 2.4693-7.8359 2.6566-8.4124 0.18728-0.57647 0.21141-1.5323 0.0459-2.1168-0.33181-1.1718-0.93177 0.48441 9.4396-25.87 2.2968-5.8362 5.4213-13.819 6.9516-17.743 1.5302-3.9233 2.8908-7.3516 3.0276-7.6178 0.22024-0.4311-0.0692-0.64653-2.6806-1.9806l-2.935-1.504-0.71595 1.8261c-0.39269 0.99966-1.3222 3.3115-2.0672 5.1393-0.74502 1.8279-1.6787 4.2536-2.073 5.3965-0.72972 2.1158-1.4992 4.1659-4.2834 11.437-0.86103 2.2487-3.4475 9.0133-5.7537 15.037-2.3063 6.0234-4.2578 11.177-4.328 11.464-0.12519 0.51367-0.72409 0.61822-1.4675 0.23845-0.39901-0.20383-0.29758-0.57029 1.727-5.7519 1.605-4.1075 7.5454-18.999 9.4307-23.651 0.38681-0.95464 1.9306-4.8704 3.4339-8.7114 1.5033-3.8411 3.2957-8.3043 3.9884-9.9189l1.258-2.9328-1.3388-0.69c-0.6554-0.33479-0.98967-0.49606-1.1945-0.47789-0.0255 0.002-0.0549 0.005-0.0766 0.013zm-18.852 53.825c0.0577-0.01 0.11601-0.0155 0.17409-0.0196 0.77375-0.0545 1.5301 0.38455 1.1625 1.1042-0.27472 0.53772-0.56952 0.61296-1.499 0.40146-1.0584-0.24083-1.1176-0.30105-0.82953-0.82544 0.20621-0.37538 0.58842-0.59203 0.99197-0.66059zm-101.12 48.27c0.18228-0.0345 0.37105-0.0643 0.55569-0.094 6.4994-1.043 14.448 0.89785 21.068 1.0376 12.036 0.25396 24.202 1.5991 35.789 4.864 4.1502 1.1694 9.4222 1.6407 11.84 5.2105 2 2.9523 2.1952 7.6334 0.36023 10.691-3.3423 5.5688-6.9659 4.6687-17.492 8.5672-10.526 3.8984-37.593 13.284-52.931 7.458-4.524-2.6672-6.4492-8.678-7.598-13.803-1.4835-6.6179-3.4659-15.438 1.2551-20.307 1.9644-2.026 4.4185-3.1071 7.1525-3.6247zm33.857 4.5109-37.072 6.4205a1.8658 1.8658 0 1 0 0.64151 3.6758l37.072-6.4205a1.8658 1.8658 0 1 0 -0.64151 -3.6758zm13.453 4.8391-52.654 9.0372a1.8658 1.8658 0 1 0 0.63199 3.6774l52.654-9.0372a1.8658 1.8658 0 1 0 -0.63202 -3.6774zm9.9847 5.4259-59.008 10.102a1.8658 1.8658 0 1 0 0.63199 3.6774l59.008-10.102a1.8658 1.8658 0 1 0 -0.63199 -3.6774zm-7.9154 8.4349-45.735 7.8764a1.8658 1.8658 0 1 0 0.63199 3.6774l45.735-7.8764a1.8658 1.8658 0 1 0 -0.63199 -3.6774z"/>
        <path id="path4250" d="m489.49 382.47-0.61199 0.29023-92.302 44.176-1.0852-0.12625v41.596l2.0568 0.23972 69.217 8.0757 2.5931 0.30283v-0.65615l0.13249 0.14512 66.151-61.489 0.73819-0.68771v-1.0094l0.0631-23.123 0.006-2.0631-2.0505-0.24605-44.24-5.3438-0.66874-0.082zm1.5205 4.858 2.4353 0.29652c-3.8597 2.518-5.9718 3.6839-9.8611 5.4826-2.1301 0.98507-4.972 2.3696-6.3154 3.0788-1.3436 0.70927-4.8373 2.3255-7.7665 3.5899-11.121 4.8004-21.578 10.319-26.177 13.817-3.4826 2.6486-3.4815 3.7169 0 1.552 1.2539-0.77967 3.7089-2.3795 5.4574-3.552 3.3833-2.2688 5.5566-3.2014 12.221-5.2744 7.8407-2.439 33.768-14.464 36.082-16.732 0.49299-0.48328 1.0323-0.92798 1.6025-1.3312l2.1451 0.25868c-0.93022 0.36181-1.454 0.71897-2.0126 1.2681-0.60744 0.59716-1.8621 1.5697-2.7886 2.164-2.5425 1.6311-12.842 6.7365-18.776 9.306-2.8936 1.2529-7.3548 3.3632-9.9116 4.694s-7.2747 3.5537-10.486 4.9338c-7.889 3.3905-11.213 5.0481-15.42 7.6971-5.8848 3.7058-10.288 6.896-15.924 11.735l-6.7192-0.78233c1.58-1.6462 2.7609-2.6233 4.94-4.2524 1.0127-0.75704 3.9074-3.3718 6.429-5.8107 3.8849-3.7574 4.5437-4.4805 4.3028-4.7255-0.0439-0.0447-0.11351-0.062-0.19558-0.0568-0.24645 0.0156-0.64884 0.24868-1.1293 0.66246-0.57081 0.49162-2.7105 2.1227-4.7508 3.6214-3.4321 2.5212-7.6309 6.1444-11.987 10.284l-3.8423-0.44795c0.73629-0.78933 1.4354-1.5204 1.9874-2.0631 1.4691-1.4441 3.0365-3.2383 3.6782-4.2019 0.19289-0.28963 0.56711-0.74528 1.0662-1.3249l41.634-19.924c0.35022-0.11801 0.71548-0.24957 1.1041-0.40377 1.1434-0.4537 3.8356-1.5292 5.9811-2.3849 3.8266-1.5261 15.805-7.2223 20.877-9.9306 0.57755-0.30834 1.3275-0.75022 2.1199-1.2429zm16.915 2.7445c0.44164 0.003 0.73006 0.16361 1.0158 0.45427 0.83403 0.8484 0.2722 1.9954-1.9748 4.0631-1.4597 1.3432-1.7822 1.7597-1.5583 1.9874 0.37584 0.3823 3.9676-1.423 7.0536-3.5457 0.83172-0.5721 1.9906-1.5163 3.3628-2.7066l1.817 0.22083c-2.3385 2.104-4.2956 3.7283-5.4448 4.4732-3.2915 2.1335-5.9331 3.4659-10.89 5.4889-2.832 1.156-5.2736 1.933-6.0126 1.918-1.1921-0.0242-1.2306-0.0678-1.0347-0.97162 0.11248-0.51885 0.34684-1.0817 0.52364-1.2555 0.1768-0.17379 2.1525-1.3437 4.3912-2.5994 5.0366-2.825 6.3709-3.8041 5.8675-4.3091-0.22-0.22377-1.0507-0.0184-2.183 0.53629-1.0062 0.49276-2.8804 1.0935-4.164 1.3375-2.4693 0.4694-5.6516 2.0665-11.836 5.9432-1.7392 1.0902-4.9365 2.8052-7.1104 3.8107s-4.7438 2.3417-5.7098 2.9716c-0.96599 0.62994-3.3775 1.6898-5.3564 2.3533-5.3682 1.7999-8.9319 3.4402-13.855 6.3722-2.4377 1.452-7.5952 4.2917-11.464 6.3154-3.8684 2.0236-7.93 4.2964-9.022 5.0473-0.94406 0.64914-2.1946 1.6424-3.7034 2.9338l-2.2145-0.25869c4.9498-4.2143 8.6759-6.3417 16.599-10.505 4.2618-2.2392 9.025-4.885 10.58-5.8801 3.2962-2.1088 4.1037-2.5003 11.893-5.735 3.2145-1.3349 5.9836-2.5605 6.1514-2.7255 0.16783-0.16496 1.3734-0.74833 2.6751-1.2934 4.3176-1.8079 6.9183-3.1273 10.36-5.2555 5.4724-3.3844 9.8928-5.5983 12-6.0063 1.0601-0.2052 3.319-0.97905 5.0157-1.7224 2.3246-1.0184 3.4911-1.4598 4.2271-1.4574zm13.274 0.90222 2.0631 0.25236c-1.8341 1.4472-4.5055 3.5213-6.9527 5.3943-8.385 6.4175-12.055 8.4428-17.647 9.7476-5.5455 1.2942-13.407 3.3973-15.091 4.0378-1.1942 0.454-1.5416 0.4071-2.2271-0.29021l-0.80757-0.8265-6.1388 2.612c-6.6195 2.8154-19.063 9.2496-20.366 10.53-1.9292 1.8964 1.4871 0.52179 10.303-4.1451 8.5441-4.5231 12.661-5.9487 14.845-5.1356 0.58131 0.21642 1.1378 0.47564 1.2366 0.57414 0.52489 0.52329 3.4588-0.1618 7.8738-1.8423 2.7246-1.037 7.2815-2.4954 10.126-3.2429 3.4201-0.89864 7.1496-2.2681 10.612-3.8423l-7.3817 5.2177c-0.45803 0.13657-0.88158 0.24577-1.2492 0.30913-4.4924 0.77445-8.2326 1.9339-8.41 2.6057-0.14471 0.54767 1.7552 0.66895 3.4069 0.22081 0.88292-0.23955 2.497-0.84078 3.5899-1.3375 0.0884-0.0401 0.20537-0.087 0.31545-0.13249l-6.0252 4.2586c-0.21705-0.0676-0.51161-0.10128-0.87068-0.10089-2.085 0.003-6.0926 1.0465-6.5741 2.0631-0.38054 0.8034 0.40863 1.1496 2.2334 0.98422 0.42166-0.0382 0.9628-0.16508 1.5394-0.34701l-4.4164 3.1167c-0.97758 0.25002-1.7645 0.60612-2.6183 1.1609-2.6063 1.6936-6.8704 3.3825-8.164 3.2303-2.1709-0.25554-8.2705 2.8369-13.104 6.6498-0.77063 0.60787-1.3747 1.1127-1.8675 1.571l-2.0631-0.23975c0.26554-0.21722 0.54106-0.44156 0.86433-0.71294 3.5976-3.02 7.3904-5.6482 11.502-7.9621 2.9353-1.6521 3.4796-1.8123 6.3974-1.8927 1.6064-0.0443 3.8605-1.1421 5.3501-2.6056 0.93872-0.92278 1.2122-1.3909 0.78865-1.4196-0.32945-0.0223-1.0856 0.22228-2.2713 0.72555-2.144 0.91003-2.9461 1.0378-5.1987 0.8328-3.1704-0.28848-3.6794-0.15765-7.2681 1.8612-2.4244 1.3638-3.1755 1.951-6.1514 4.7886-2.3952 2.2839-4.5202 4.5308-5.8549 6.1703l-3.287-0.38484c0.31489-0.40415 0.68371-0.80156 1.1546-1.2618 0.92685-0.90629 2.3864-2.169 3.2429-2.8076 0.85645-0.63863 2.7984-2.3202 4.3154-3.735 2.124-1.9809 3.4109-2.9533 5.5962-4.2334 1.5607-0.91431 3.2982-1.997 3.8548-2.4038 1.3953-1.0194 2.8409-1.2615 4.1956-0.70031 2.0748 0.85957 6.4649-0.0623 8.1451-1.7098 0.7846-0.76762 0.46365-0.95078-1.1798-0.68138-0.76952 0.12612-2.3013-0.0429-3.4006-0.37225-0.8257-0.24744-1.3424-0.38061-1.9117-0.35332-0.7318 0.0351-1.5491 0.33282-3.205 0.99055-3.0835 1.2248-18.539 8.8336-23.337 11.489-1.7734 0.98135-4.5803 2.644-7.7602 4.5804l-2.8013-0.32808c2.7543-1.7923 4.2455-2.8513 4.3028-3.0725 0.0292-0.11222-0.0493-0.15515-0.21451-0.14513-0.71586 0.0435-3.0849 1.1589-5.6088 2.694-0.16233 0.0987-0.31645 0.19355-0.4732 0.29021l-2.6372-0.30283c2.567-1.6786 5.448-3.3714 8.8959-5.2429 2.8639-1.5545 7.9356-4.3503 11.268-6.2082 8.5531-4.7683 15.407-8.2453 19.016-9.6466 1.7044-0.6618 4.8007-2.0057 6.8769-2.9842 4.3859-2.0671 6.6674-2.866 7.0536-2.4732 0.15081 0.15344 0.25063 0.69739 0.22083 1.2114-0.0716 1.2348 0.50436 1.3086 3.1798 0.40379 1.2284-0.41548 4.7547-1.4238 7.8359-2.246 4.7693-1.2727 6.0454-1.7599 8.5993-3.2744 1.65-0.97845 3.6474-2.2929 4.4353-2.9211 0.78791-0.62818 3.4271-2.6123 5.8675-4.4101 1.2338-0.90887 2.4557-1.8387 3.4322-2.5994zm10.587 3.4132-0.0129 5.2113c-2.7133 2.1726-5.0158 4.1239-5.2113 4.429-0.6803 1.0613 0.86516 0.38121 4.6183-2.0378l0.58673-0.37856-0.006 2.1514-2.4353 1.5773c-3.0168 1.9512-6.5219 4.0926-7.7854 4.7571-1.2636 0.66453-4.509 2.4879-7.2113 4.0568-6.1741 3.5846-13.94 7.242-18.088 8.5173-1.7538 0.53919-5.4672 1.8794-8.2523 2.9779-0.29556 0.1166-0.60321 0.2334-0.90851 0.3533l7.0789-5.0032c0.46068-0.159 0.89988-0.3105 1.2807-0.4353 5.6444-1.8497 9.5475-3.9727 7.5268-4.0946-0.0318-0.003-0.0708-0.003-0.11363 0-0.52342 0.0265-1.857 0.35721-3.4511 0.8202l5.2681-3.7287c2.1504-0.78291 3.7896-1.6698 4.2208-2.347 0.0779-0.12226-0.0129-0.17534-0.23344-0.17664-0.11994 0-0.28893 0.0148-0.4795 0.0441l9.7539-6.8958c1.3131-0.78659 2.6986-1.6614 4.2018-2.6562 3.5159-2.3267 6.3226-4.3773 9.1041-6.7571l0.54891-0.38486zm-12.448 11.268c-0.51345-0.003-2.0622 0.74675-4.6877 2.2524-2.4631 1.4125-4.5226 2.6055-4.5741 2.6561-0.4285 0.42119 0.66455 0.30916 2.94-0.30912 2.7057-0.73514 4.384-1.7398 5.9369-3.5457 0.59949-0.69712 0.73618-1.052 0.38486-1.0536zm12.404 3.7539v1.4637c-4.4211 4.1331-3.6473 3.6236-19.016 10.214-3.277 1.4054-6.7022 3.0339-7.6151 3.6214-0.91295 0.58756-3.3845 1.8983-5.489 2.9085-4.7811 2.2952-6.7408 3.6622-11.678 8.1514-3.3579 3.0532-4.2084 3.7042-5.8864 4.4984-1.9787 0.93652-4.0738 1.1603-5.4069 0.58044-1.867-0.81217-4.6275-0.0798-6.4479 1.7098-0.1897 0.18647-0.49996 0.45272-0.84543 0.73818v-4.7571l5.6593-4.0063c1.0791-0.57743 2.2333-1.2002 3.1104-1.6908 1.4735-0.82438 4.5881-2.3341 6.9211-3.3564 3.2101-1.4068 4.759-1.8881 6.3659-1.9748 1.6913-0.0912 3.2679-0.61003 7.735-2.5363 3.0846-1.3301 7.3939-3.1725 9.5772-4.1009 6.3469-2.6989 16.05-6.9885 17.729-7.8359 1.2757-0.64417 2.2694-1.3083 5.287-3.6277zm-8.675 9.817-1.8296 1.9117c-2.0612 2.1565-3.4462 3.0514-10.019 6.4795-6.8823 3.5895-9.3288 5.5913-13.931 11.388-1.9346 2.4369-2.2266 2.935-1.9054 3.2618 0.33361 0.33934 0.82693 0.0226 4.1262-2.6246 3.5424-2.8422 3.8278-3.1157 5.0914-4.9653 1.3046-1.9092 1.3848-1.9821 3.1798-2.9401 1.0124-0.54033 2.4923-1.1937 3.2934-1.4511l1.4574-0.46687-9.0347 8.6814-2 1.918-7.8612 7.3123-3.8107 2.53c-5.5766 3.7062-9.9184 6.2152-13.243 7.6529-1.356 0.58642-3.1196 1.4224-3.9242 1.8549-0.62976 0.33844-1.9745 0.9678-3.2997 1.5583v-5.0284c0.0438-0.0238 0.0911-0.0541 0.13249-0.0757 1.7062-0.89291 10.63-4.4907 16.24-6.5489 3.1674-1.1621 5.5524-2.6016 6.4416-3.8801 0.45956-0.66072 0.285-1.2141-0.13248-1.2366-0.18982-0.0103-0.42721 0.0906-0.68138 0.34068-0.32954 0.32394-2.6564 1.6608-5.1735 2.9716-3.7044 1.9292-5.5005 2.6343-9.4069 3.6972-3.2244 0.87734-5.3748 1.579-7.4195 2.511v-5.1987c0.70352-0.61528 1.2698-1.0952 1.5457-1.2934 1.2216-0.87758 5.8729-2.5469 12.908-4.6435 3.9245-1.1696 5.533-2.1026 7.1924-4.1577 5.4018-6.6901 6.71-8.1518 8.1451-9.1041 0.79504-0.52753 3.0536-1.5108 5.0221-2.1892 4.3151-1.487 9.9083-3.8597 15.072-6.3911l3.8233-1.8738zm-110.28 5.1041c-1.4632 1.4738-2.8141 2.8327-3.9937 4.0316l-1.5584-0.18298c0.73864-0.75847 1.465-1.4953 2.2019-2.246l3.3501-1.6025zm33.962 2.246c-0.24882 0.0274-0.68662 0.28282-1.1104 0.70662-0.68244 0.68276-0.67649 0.69674 0.18295 0.37855 0.48881-0.18095 0.97325-0.50327 1.0726-0.71292 0.13108-0.27681 0.0484-0.3935-0.14512-0.37225zm29.76 1.224-10.271 7.2618-3.5394-0.41011c1.0054-1.4706 1.7796-1.7554 3.7413-2.511 1.3083-0.50392 4.6119-1.9226 7.3438-3.1483 0.91556-0.41073 1.837-0.80932 2.7255-1.1924zm-71.167 0.0947c-0.0199 0.0202-0.0432 0.0367-0.0631 0.0568l-0.0505-0.006 0.11351-0.0504zm-5.205 4.1325 5.1987 0.60567c-1.9267 0.41827-3.6621 0.89761-5.1987 1.4448v-2.0505zm47.861 0.006c0.18585 0.003 0.31689 0.0441 0.39748 0.12625 0.26862 0.27324 0.353 0.42073 0.0189 0.82019l-2.6309-0.30284c1.0177-0.43181 1.7695-0.65082 2.2145-0.64354zm-35.4 1.4448 25.975 3.0347c-2.3719 0.24354-4.4195 0.53595-4.8012 0.7508-0.1909 0.10733-0.27033 0.37709-0.17665 0.59936 0.24442 0.58011 3.2028 0.83088 7.1608 0.60567 2.8456-0.1619 3.9768-0.0861 8.0568 0.53629 7.264 1.1079 11.392 2.1234 15.905 4.1388v5.5457c-0.36911-0.22415-0.76382-0.44875-1.1861-0.67507-1.4006-0.7507-3.4198-1.9522-4.4858-2.6688-1.066-0.71658-2.6707-1.6435-3.5646-2.0631-1.5992-0.75053-1.7122-0.76671-6.9716-0.78862-5.9148-0.0246-12.11-0.75182-14.637-1.7224-0.77012-0.29572-2.7327-0.7214-4.3659-0.94639-1.6333-0.22492-4.0435-0.59249-5.3501-0.82016-1.3067-0.22772-3.9072-0.4869-5.7855-0.57414-0.58663-0.0273-1.1401-0.0454-1.6656-0.0441-3.6784 0.009-6.1042 0.78138-10.681 3.1798-1.4251 0.74677-2.706 1.3565-2.8454 1.3565s-0.79891 0.45099-1.47 1.0032c-1.1566 0.95151-1.2137 1.0703-1.0725 2.2334 0.13504 1.1129 0.35667 1.4063 2.3785 3.123 1.2476 1.0593 3.1892 2.3569 4.4101 2.9464 1.4815 0.71521 2.7344 1.5948 3.899 2.7508 1.992 1.9771 5.1364 3.9724 7.3943 4.6877 2.4852 0.78723 4.7759 1.7711 6.6309 2.8517 0.94015 0.54768 2.7307 1.3384 3.9748 1.7539 1.244 0.41551 3.394 1.1469 4.7823 1.6278 5.5127 1.9093 5.7396 1.9629 8.9779 2.1072 3.5136 0.15662 7.0989-0.23926 8.9905-0.99684 1.543-0.61798 5.7428-3.2358 8.063-5.0221 1.0043-0.77315 2.7402-1.7923 3.8612-2.2713 0.25055-0.10707 0.48745-0.22502 0.71924-0.34699v5.6214c-1.0306 0.59569-2.035 1.032-3.1041 1.3502-0.83646 0.24893-2.8138 0.92094-4.3912 1.489-3.4618 1.2466-5.6371 1.8171-8.6309 2.0946l-17.968-2.0946c-0.73006-0.36498-1.4565-0.77766-2.1956-1.2429-1.042-0.65593-2.6622-1.673-3.6025-2.265-0.94032-0.59193-3.0959-1.5623-4.7886-2.1577-3.1334-1.1022-5.1835-2.1406-9.6845-4.8896-1.3884-0.8479-3.8148-2.1098-5.388-2.8012-1.3524-0.59445-3.3666-1.6246-4.8265-2.4543v-12.599c2.6271-1.4 4.1629-1.9074 6.5489-2.1829 1.2732-0.14701 2.5815-0.34081 2.9085-0.43533 2.2815-0.65941 13.376 0.0319 18 1.123 2.0936 0.49404 3.2653 0.51023 3.9558 0.0505 0.83788-0.55797 0.0952-0.86987-3.2366-1.3565-1.6333-0.23855-4.9061-0.75258-7.2744-1.1419-2.7437-0.45108-4.0922-0.61336-5.8738-0.61198-0.59389 0-1.2368 0.0189-1.9937 0.0504-4.3261 0.1802-6.8384 0.7437-12.069 2.6877-0.28801 0.10707-0.64729 0.23134-0.96528 0.34701v-1.6404c5.207-2.0247 8.2201-2.7155 12.461-2.8328zm44.934 5.2429 7.1861 0.83912v2.2145c-1.8305-0.76053-4.0805-1.7154-6.9211-2.94-0.0915-0.0394-0.17539-0.0752-0.26501-0.11351zm-38.208 3.1482c1.8277 0 3.4387 0.41268 6.8202 1.4322 2.6632 0.80294 6.3803 1.8612 8.2586 2.347l3.4195 0.88326 4.1577-0.45425c2.2866-0.24881 4.6269-0.44913 5.205-0.44796 1.8384 0.004 4.4898 0.79092 8.1577 2.429 1.96 0.87534 4.5578 1.8594 5.7792 2.183 1.4986 0.39702 2.7917 1.0644 3.5962 1.7918v3.4511c-1.16 1.7436-3.259 3.9611-4.9211 5.0031-1.3525 0.84796-8.0383 3.6082-9.7602 4.0315-1.6453 0.40449-12.101 0.0931-14-0.41641-0.81663-0.21908-3.0517-0.81198-4.9716-1.3186-4.2582-1.1237-4.8856-1.4041-10.315-4.7003-2.3717-1.4398-5.7172-3.2354-7.4322-3.9874-3.1307-1.3729-4.2673-2.2117-5.7602-4.246-0.91447-1.2461-0.96197-2.3592-0.16403-3.735 1.1412-1.9678 3.6479-3.1751 7.981-3.8423 1.6748-0.25782 2.8529-0.40406 3.9495-0.40378zm0.92115 2.1388c-1.4303-0.005-5.5994 1.311-6.4605 2.0379-1.0665 0.90003-1.0047 2.0848 0.20188 3.7224 0.57403 0.77913 1.9308 1.9451 3.3438 2.8833 1.3067 0.86759 3.6018 2.6007 5.1041 3.8486 1.786 1.4836 3.4843 2.6092 4.9022 3.2492 2.1664 0.97792 9.9516 3.0214 10.883 2.858 1.0822-0.18977 0.44496-0.87034-1.2366-1.3249-0.9486-0.25649-3.0694-0.98118-4.7192-1.6151-2.7378-1.0521-3.2526-1.3722-5.9053-3.6908-2.9249-2.5565-4.429-4.5791-4.429-5.9684 0-0.9542 1.995-2.6653 3.3817-2.9022 0.73149-0.12497 1.8107-0.0323 3.1041 0.27128 4.1862 0.98271 6.3564 1.2884 6.6056 0.92113 0.35899-0.52884 0.10141-0.70708-1.735-1.1735-0.93614-0.23775-2.8077-0.80213-4.1577-1.2555-2.5882-0.86921-7.287-1.8552-8.8832-1.8612zm25.413 4.3786c-0.35091 0.0196-0.56152 0.12084-0.56152 0.32806 0 0.24468 0.23151 0.51741 0.51735 0.60568 0.28582 0.0883 1.6868 0.63905 3.1104 1.224 1.4237 0.58492 3.0918 1.1378 3.7098 1.224l1.123 0.15142-0.83912-0.81389c-1.3603-1.3239-5.5395-2.8041-7.0599-2.7192zm-19.899 0.29651c-0.38987 0.018-0.64968 0.11595-1.022 0.2776-1.4195 0.61644-1.3893 1.6103 0.11351 3.3375 1.9284 2.216 3.7637 3.7912 5.4322 4.6624 2.8747 1.5012 3.5928 0.9597 1.0221-0.76968-2.0164-1.3565-2.5426-2.0409-2.5426-3.2808 0-1.4911 0.83071-2.0234 3.0031-1.9369 1.5383 0.0613 1.7476 0.009 1.7476-0.43532 0-0.42864-0.58675-0.62031-3.8801-1.2618-2.0812-0.40544-3.0628-0.58661-3.6972-0.59307-0.0616 0-0.12097-0.003-0.17666 0zm10.486 4.1072c-2.5656 0.006-4.7428 0.0412-5.205 0.1072-0.13387 0.0192-0.19733 0.30649-0.14509 0.63723 0.0667 0.42276 0.8437 1.0222 2.6183 2.0189 2.5599 1.4379 3.8758 1.8946 4.4732 1.5583 0.2125-0.11956 0.004-0.49298-0.59308-1.0536-1.4864-1.3966-1.0684-1.7739 2.0189-1.7981 1.4117-0.0116 2.8621-0.0709 3.224-0.13248 0.86787-0.14776 2.1321 0.30538 2.3596 0.84542 0.3492 0.8287-0.69754 1.327-3.3943 1.6088-1.9927 0.20826-2.6113 0.37023-2.6814 0.70662-0.28531 1.3689 8.1782 0.84648 9.6088-0.59304 0.30772-0.30969 0.42922-0.73157 0.32175-1.1167-0.22264-0.79825-1.7444-2.3092-2.6372-2.6183-0.331-0.11467-5.6926-0.1811-9.9684-0.17037zm22.265 1.5331c-0.32189-0.005-0.58289 0.37445-1.0032 1.2429-0.8163 1.6872-2.2608 3.2554-3.9242 4.2587-1.3972 0.84257-1.7544 1.489-0.82021 1.489 0.9557 0 3.1465-0.81437 3.9748-1.4764 0.95111-0.76017 2.4848-2.9651 2.7571-3.9621 0.1308-0.47894 0.0416-0.84618-0.29022-1.1482-0.28165-0.2565-0.50085-0.40053-0.69401-0.40378zm-58.372 0.20819c3.4988 1.9474 8.4878 4.5368 11.098 5.7161 1.0021 0.45281 2.8503 1.065 4.1072 1.3564 2.282 0.52924 2.7766 0.79223 6.1766 3.2934 0.97544 0.71752 2.1316 1.4954 3.3312 2.2586l-3.7224-0.43532c-0.82189-0.52606-1.7831-1.1948-2.4353-1.7035-1.1782-0.91905-2.2411-1.4413-4.0063-1.9684-3.5818-1.0696-5.1025-1.6935-7.9936-3.2807-1.4403-0.79071-3.3984-1.7974-4.347-2.2334-0.46512-0.2138-1.2816-0.64486-2.2082-1.1546v-1.8486zm52.063 0.85175c-0.38508 0.0103-0.82569 0.32516-1.1672 0.9779-0.69972 1.3372-1.7534 1.9461-5.4196 3.142-0.28584 0.0932-0.51735 0.35901-0.51735 0.58673 0 0.31813 0.34936 0.4101 1.5205 0.4101 0.83849 0 2.0785-0.14516 2.7508-0.32808 1.623-0.44161 3.7475-2.3635 3.7413-3.3817-0.005-0.93177-0.4134-1.4202-0.9085-1.4069zm31.792 1.3123-14.631 13.602v-5.7665c1.001-0.76248 2.0049-1.4622 2.9842-2.0694 1.9233-1.1924 8.3365-4.3729 11.438-5.6782l0.20822-0.0883zm-83.855 2.9463c4.1144 2.345 8.4611 4.6418 11.344 5.9558l-4.0442-0.47317c-2.513-1.2607-5.2957-2.7437-7.2996-3.9243v-1.5584zm0 4.3596c0.21742 0.1211 0.42734 0.2353 0.6372 0.34701l-0.6372-0.0757v-0.2713zm64.58 2.3596v3.1987c-1.3364 0.54512-2.8452 1.1188-4.5173 1.7161l-5.2366-0.60567c3.369-1.1363 6.7978-2.6583 9.7539-4.3091z"/>
      </g>
    </g>
    <text id="text4266" font-size="20px" xml:space="preserve" transform="translate(0 62.362)" y="748.57141" x="552.85712" font-family="Plantagenet Cherokee" fill="#000000">
      <tspan id="tspan4268" y="748.57141" x="552.85712"/>
    </text>
  </g>
  <metadata>
    <rdf:RDF>
      <cc:Work>
        <dc:format>image/svg+xml</dc:format>
        <dc:type rdf:resource="http://purl.org/dc/dcmitype/StillImage"/>
        <cc:license rdf:resource="http://creativecommons.org/licenses/publicdomain/"/>
        <dc:publisher>
          <cc:Agent rdf:about="http://openclipart.org/">
            <dc:title>Openclipart</dc:title>
          </cc:Agent>
        </dc:publisher>
        <dc:title>Boogie Board</dc:title>
        <dc:date>2012-06-13T11:45:22</dc:date>
        <dc:description>Boogie board icon</dc:description>
        <dc:source>http://openclipart.org/detail/170640/boogie-board-by-last-dino-170640</dc:source>
        <dc:creator>
          <cc:Agent>
            <dc:title>Last-Dino</dc:title>
          </cc:Agent>
        </dc:creator>
        <dc:subject>
          <rdf:Bag>
            <rdf:li>b/w</rdf:li>
            <rdf:li>beach</rdf:li>
            <rdf:li>black</rdf:li>
            <rdf:li>board</rdf:li>
            <rdf:li>boogie</rdf:li>
            <rdf:li>bw</rdf:li>
            <rdf:li>clip art</rdf:li>
            <rdf:li>clipart</rdf:li>
            <rdf:li>icon</rdf:li>
            <rdf:li>mono</rdf:li>
            <rdf:li>monochrome</rdf:li>
            <rdf:li>pool</rdf:li>
            <rdf:li>summer</rdf:li>
            <rdf:li>surf</rdf:li>
            <rdf:li>swim</rdf:li>
            <rdf:li>swimming</rdf:li>
            <rdf:li>water</rdf:li>
            <rdf:li>white</rdf:li>
          </rdf:Bag>
        </dc:subject>
      </cc:Work>
      <cc:License rdf:about="http://creativecommons.org/licenses/publicdomain/">
        <cc:permits rdf:resource="http://creativecommons.org/ns#Reproduction"/>
        <cc:permits rdf:resource="http://creativecommons.org/ns#Distribution"/>
        <cc:permits rdf:resource="http://creativecommons.org/ns#DerivativeWorks"/>
      </cc:License>
    </rdf:RDF>
  </metadata>
</svg>
